<svg width="29" height="30" viewBox="0 0 29 30" fill="none" xmlns="http://www.w3.org/2000/svg">
<path d="M17.5241 10.3983H17.8741V10.0483V7.65364V7.30364H17.5241H15.3944C13.3943 7.30364 11.9983 9.0518 11.9983 11.0965V12.0703H10.0682H9.71815V12.4203V14.6711V15.0211H10.0682H11.9983V21.4281V21.7781H12.3483H14.8617H15.2117V21.4281V15.0211H17.1226H17.4156L17.4672 14.7328L17.8701 12.482L17.9438 12.0703H17.5255H15.2117V10.842C15.2117 10.6864 15.2602 10.5597 15.3179 10.4793C15.3651 10.4133 15.3993 10.4004 15.4036 10.3983H17.5241ZM0.35 14.5409C0.35 6.69474 6.54496 0.35 14.168 0.35C21.7911 0.35 27.986 6.69474 27.986 14.5409C27.986 22.387 21.7911 28.7317 14.168 28.7317C6.54496 28.7317 0.35 22.387 0.35 14.5409Z" stroke="#C985FF" stroke-width="0.7"/>
</svg>
