<svg width="28" height="30" viewBox="0 0 28 30" fill="none" xmlns="http://www.w3.org/2000/svg">
<mask id="path-1-inside-1_544_139" fill="white">
<path d="M15.2133 0C16.7652 0.00436215 17.5529 0.0130865 18.233 0.0334432L18.5006 0.0436215C18.8096 0.0552539 19.1144 0.0697944 19.4827 0.087243C20.9505 0.159946 21.9519 0.404226 22.8307 0.763377C23.7411 1.13271 24.5081 1.6329 25.275 2.4399C25.9768 3.16653 26.5196 4.04586 26.8655 5.01648C27.2063 5.94271 27.438 6.99835 27.507 8.54691C27.5235 8.93369 27.5373 9.25504 27.5484 9.5822L27.5566 9.86428C27.5773 10.5797 27.5856 11.4099 27.5884 13.0457L27.5898 14.1305V16.0353C27.5931 17.0959 27.5825 18.1565 27.558 19.2167L27.5497 19.4988C27.5387 19.826 27.5249 20.1473 27.5084 20.5341C27.4394 22.0827 27.2049 23.1369 26.8655 24.0645C26.5196 25.0352 25.9768 25.9145 25.275 26.6411C24.5857 27.3808 23.7515 27.9529 22.8307 28.3176C21.9519 28.6768 20.9505 28.9211 19.4827 28.9938L18.5006 29.0374L18.233 29.0461C17.5529 29.0665 16.7652 29.0767 15.2133 29.0796L14.1843 29.081H12.3786C11.3719 29.0848 10.3653 29.0736 9.35896 29.0476L9.09135 29.0389C8.76388 29.0258 8.43649 29.0108 8.10918 28.9938C6.64145 28.9211 5.63997 28.6768 4.75988 28.3176C3.83956 27.9528 3.00583 27.3806 2.31688 26.6411C1.61466 25.9146 1.07139 25.0353 0.724995 24.0645C0.384271 23.1383 0.152524 22.0827 0.0835515 20.5341L0.042168 19.4988L0.035271 19.2167C0.00984227 18.1565 -0.00165437 17.0959 0.000784626 16.0353V13.0457C-0.00303354 11.9852 0.00708349 10.9246 0.0311326 9.86428L0.0407887 9.5822C0.0518243 9.25504 0.0656187 8.93369 0.0821721 8.54691C0.151145 6.99835 0.382892 5.94416 0.723616 5.01648C1.07081 4.04546 1.61505 3.1661 2.31826 2.4399C3.00681 1.70058 3.84005 1.12845 4.75988 0.763377C5.63997 0.404226 6.64007 0.159946 8.10918 0.087243C8.47612 0.0697944 8.78235 0.0552539 9.09135 0.0436215L9.35896 0.0348971C10.3648 0.00906267 11.371 -0.00208612 12.3772 0.00145395L15.2133 0ZM13.7953 7.27026C11.966 7.27026 10.2117 8.03623 8.91818 9.39966C7.6247 10.7631 6.89803 12.6123 6.89803 14.5405C6.89803 16.4687 7.6247 18.3179 8.91818 19.6814C10.2117 21.0448 11.966 21.8108 13.7953 21.8108C15.6245 21.8108 17.3789 21.0448 18.6724 19.6814C19.9658 18.3179 20.6925 16.4687 20.6925 14.5405C20.6925 12.6123 19.9658 10.7631 18.6724 9.39966C17.3789 8.03623 15.6245 7.27026 13.7953 7.27026ZM13.7953 10.1784C14.3387 10.1783 14.8769 10.291 15.379 10.5101C15.8811 10.7293 16.3374 11.0505 16.7217 11.4555C17.1061 11.8605 17.411 12.3413 17.619 12.8705C17.8271 13.3997 17.9342 13.9669 17.9343 14.5398C17.9344 15.1126 17.8274 15.6799 17.6196 16.2092C17.4117 16.7384 17.1069 17.2194 16.7227 17.6245C16.3385 18.0296 15.8823 18.351 15.3803 18.5703C14.8782 18.7896 14.3401 18.9026 13.7966 18.9027C12.6991 18.9027 11.6465 18.4431 10.8704 17.625C10.0943 16.807 9.6583 15.6974 9.6583 14.5405C9.6583 13.3836 10.0943 12.2741 10.8704 11.456C11.6465 10.6379 12.6991 10.1784 13.7966 10.1784M21.0387 5.08918C20.5814 5.08918 20.1429 5.28067 19.8195 5.62153C19.4961 5.96239 19.3144 6.42469 19.3144 6.90674C19.3144 7.38879 19.4961 7.85109 19.8195 8.19195C20.1429 8.53281 20.5814 8.72431 21.0387 8.72431C21.4961 8.72431 21.9347 8.53281 22.258 8.19195C22.5814 7.85109 22.7631 7.38879 22.7631 6.90674C22.7631 6.42469 22.5814 5.96239 22.258 5.62153C21.9347 5.28067 21.4961 5.08918 21.0387 5.08918Z"/>
</mask>
<path d="M15.2133 0L15.2153 -0.700001L15.213 -0.7L15.2133 0ZM18.233 0.0334432L18.2596 -0.666074L18.2539 -0.666243L18.233 0.0334432ZM18.5006 0.0436215L18.474 0.743116L18.4742 0.743126L18.5006 0.0436215ZM19.4827 0.087243L19.5174 -0.611901L19.5159 -0.611973L19.4827 0.087243ZM22.8307 0.763377L22.5658 1.41135L22.5675 1.41204L22.8307 0.763377ZM25.275 2.4399L24.7676 2.92214L24.7715 2.92616L25.275 2.4399ZM26.8655 5.01648L26.2061 5.25152L26.2086 5.25815L26.8655 5.01648ZM27.507 8.54691L28.2063 8.51698L28.2063 8.51577L27.507 8.54691ZM27.5484 9.5822L28.2481 9.56166L28.248 9.5586L27.5484 9.5822ZM27.5566 9.86428L28.2564 9.84404L28.2563 9.84375L27.5566 9.86428ZM27.5884 13.0457L28.2884 13.0449V13.0446L27.5884 13.0457ZM27.5898 14.1305H28.2898V14.1296L27.5898 14.1305ZM27.5898 16.0353H26.8897L26.8898 16.0375L27.5898 16.0353ZM27.558 19.2167L28.2577 19.2373L28.2578 19.2329L27.558 19.2167ZM27.5497 19.4988L28.2494 19.5224L28.2494 19.5194L27.5497 19.4988ZM27.5084 20.5341L28.2077 20.5653L28.2077 20.564L27.5084 20.5341ZM26.8655 24.0645L26.2081 23.8241L26.2062 23.8295L26.8655 24.0645ZM25.275 26.6411L24.7714 26.1548L24.763 26.1639L25.275 26.6411ZM22.8307 28.3176L22.5729 27.6668L22.5658 27.6697L22.8307 28.3176ZM19.4827 28.9938L19.5138 29.6931L19.5174 29.6929L19.4827 28.9938ZM18.5006 29.0374L18.5234 29.7371L18.5316 29.7367L18.5006 29.0374ZM18.233 29.0461L18.2539 29.7458L18.2558 29.7458L18.233 29.0461ZM15.2133 29.0796L15.2143 29.7796H15.2147L15.2133 29.0796ZM14.1843 29.081V29.781L14.1853 29.781L14.1843 29.081ZM12.3786 29.081V28.381L12.376 28.381L12.3786 29.081ZM9.35896 29.0476L9.33616 29.7472L9.34086 29.7473L9.35896 29.0476ZM9.09135 29.0389L9.06343 29.7383L9.06855 29.7385L9.09135 29.0389ZM8.10918 28.9938L8.14544 28.2947L8.14381 28.2946L8.10918 28.9938ZM4.75988 28.3176L5.02438 27.6695L5.01788 27.6669L4.75988 28.3176ZM2.31688 26.6411L2.82913 26.1639L2.82019 26.1546L2.31688 26.6411ZM0.724995 24.0645L1.38431 23.8293L1.38195 23.8229L0.724995 24.0645ZM0.0835515 20.5341L-0.615897 20.5621L-0.615755 20.5653L0.0835515 20.5341ZM0.042168 19.4988L-0.657707 19.5159L-0.657273 19.5268L0.042168 19.4988ZM0.035271 19.2167L-0.664528 19.2335L-0.66452 19.2338L0.035271 19.2167ZM0.000784626 16.0353L0.700785 16.0369V16.0353H0.000784626ZM0.000784626 13.0457H0.700789L0.70078 13.0432L0.000784626 13.0457ZM0.0311326 9.86428L-0.668504 9.84033L-0.668687 9.84841L0.0311326 9.86428ZM0.0407887 9.5822L0.740379 9.60614L0.740391 9.60579L0.0407887 9.5822ZM0.0821721 8.54691L-0.617136 8.51577L-0.617188 8.51698L0.0821721 8.54691ZM0.723616 5.01648L1.38072 5.25782L1.38275 5.25216L0.723616 5.01648ZM2.31826 2.4399L2.82123 2.92694L2.8305 2.91698L2.31826 2.4399ZM4.75988 0.763377L5.01812 1.41404L5.02437 1.41149L4.75988 0.763377ZM8.10918 0.087243L8.07593 -0.611968L8.07458 -0.611901L8.10918 0.087243ZM9.09135 0.0436215L9.06854 -0.656016L9.06502 -0.655883L9.09135 0.0436215ZM9.35896 0.0348971L9.34099 -0.664889L9.33615 -0.664731L9.35896 0.0348971ZM12.3772 0.00145395L12.3747 0.701455L12.3776 0.701454L12.3772 0.00145395ZM13.7953 7.27026V6.57025V7.27026ZM6.89803 14.5405H6.19803H6.89803ZM13.7953 21.8108V21.1108V21.8108ZM20.6925 14.5405H19.9925H20.6925ZM13.7966 18.9027V19.6027H13.7968L13.7966 18.9027ZM15.2114 0.699997C16.7628 0.704358 17.5422 0.713081 18.212 0.73313L18.2539 -0.666243C17.5635 -0.686908 16.7676 -0.695634 15.2153 -0.699997L15.2114 0.699997ZM18.2063 0.732937L18.474 0.743116L18.5272 -0.655873L18.2596 -0.666051L18.2063 0.732937ZM18.4742 0.743126C18.7792 0.754605 19.0804 0.768967 19.4496 0.786459L19.5159 -0.611973C19.1485 -0.629378 18.84 -0.644097 18.5269 -0.655883L18.4742 0.743126ZM19.4481 0.786386C20.8467 0.855664 21.7691 1.0857 22.5658 1.41134L23.0955 0.115411C22.1348 -0.277242 21.0542 -0.535773 19.5174 -0.6119L19.4481 0.786386ZM22.5675 1.41204C23.3878 1.74478 24.0709 2.18902 24.7676 2.92213L25.7824 1.95767C24.9452 1.07677 24.0944 0.520632 23.0938 0.114717L22.5675 1.41204ZM24.7715 2.92616C25.4026 3.57964 25.893 4.37283 26.2062 5.25151L27.5249 4.78144C27.1461 3.71888 26.5509 2.75343 25.7786 1.95363L24.7715 2.92616ZM26.2086 5.25815C26.5212 6.10792 26.7415 7.09133 26.8077 8.57806L28.2063 8.51577C28.1346 6.90536 27.8913 5.77749 27.5225 4.77481L26.2086 5.25815ZM26.8076 8.57684C26.8242 8.96434 26.8379 9.28239 26.8488 9.60579L28.248 9.5586C28.2368 9.22768 28.2229 8.90304 28.2063 8.51698L26.8076 8.57684ZM26.8487 9.60273L26.8569 9.88482L28.2563 9.84375L28.2481 9.56166L26.8487 9.60273ZM26.8569 9.88452C26.8773 10.5896 26.8856 11.4115 26.8884 13.0469L28.2884 13.0446C28.2856 11.4084 28.2773 10.5698 28.2564 9.84404L26.8569 9.88452ZM26.8884 13.0466L26.8898 14.1314L28.2898 14.1296L28.2884 13.0449L26.8884 13.0466ZM26.8898 14.1305V16.0353H28.2898V14.1305H26.8898ZM26.8898 16.0375C26.8931 17.092 26.8826 18.1464 26.8582 19.2006L28.2578 19.2329C28.2825 18.1665 28.2931 17.0998 28.2897 16.0331L26.8898 16.0375ZM26.8583 19.1962L26.85 19.4783L28.2494 19.5194L28.2577 19.2373L26.8583 19.1962ZM26.8501 19.4752C26.8392 19.7986 26.8256 20.1167 26.809 20.5042L28.2077 20.564C28.2242 20.178 28.2382 19.8533 28.2493 19.5224L26.8501 19.4752ZM26.8091 20.503C26.7429 21.9883 26.5202 22.971 26.2081 23.8241L27.5229 24.305C27.8896 23.3028 28.1359 22.1771 28.2077 20.5653L26.8091 20.503ZM26.2062 23.8295C25.893 24.7082 25.4026 25.5014 24.7715 26.1549L25.7786 27.1274C26.5509 26.3276 27.1461 25.3621 27.5249 24.2996L26.2062 23.8295ZM24.763 26.1639C24.1429 26.8292 23.395 27.3412 22.5729 27.6668L23.0884 28.9685C24.1079 28.5647 25.0285 27.9324 25.7871 27.1184L24.763 26.1639ZM22.5658 27.6697C21.7691 27.9953 20.8467 28.2254 19.4481 28.2946L19.5174 29.6929C21.0542 29.6168 22.1348 29.3583 23.0955 28.9656L22.5658 27.6697ZM19.4517 28.2945L18.4695 28.3381L18.5316 29.7367L19.5138 29.6931L19.4517 28.2945ZM18.4778 28.3378L18.2101 28.3465L18.2558 29.7458L18.5234 29.737L18.4778 28.3378ZM18.212 28.3464C17.542 28.3665 16.7622 28.3767 15.212 28.3796L15.2147 29.7796C16.7683 29.7767 17.5638 29.7665 18.2539 29.7458L18.212 28.3464ZM15.2124 28.3796L14.1833 28.381L14.1853 29.781L15.2143 29.7796L15.2124 28.3796ZM14.1843 28.381H12.3786V29.781H14.1843V28.381ZM12.376 28.381C11.3762 28.3847 10.3765 28.3737 9.37707 28.3478L9.34086 29.7473C10.3541 29.7736 11.3676 29.7848 12.3812 29.781L12.376 28.381ZM9.38176 28.3479L9.11415 28.3392L9.06855 29.7385L9.33616 29.7472L9.38176 28.3479ZM9.11927 28.3394C8.79458 28.3264 8.46997 28.3116 8.14544 28.2947L8.07292 29.6928C8.40301 29.71 8.73318 29.7251 9.06343 29.7383L9.11927 28.3394ZM8.14381 28.2946C6.7453 28.2254 5.82276 27.9953 5.02437 27.6695L4.4954 28.9658C5.45718 29.3582 6.5376 29.6168 8.07455 29.6929L8.14381 28.2946ZM5.01788 27.6669C4.19616 27.3411 3.44873 26.8291 2.82904 26.164L1.80471 27.1183C2.56294 27.9321 3.48295 28.5644 4.50189 28.9684L5.01788 27.6669ZM2.82019 26.1546C2.18869 25.5013 1.69786 24.7081 1.38428 23.8293L0.0657101 24.2998C0.444914 25.3625 1.04064 26.328 1.81357 27.1276L2.82019 26.1546ZM1.38195 23.8229C1.06935 22.9731 0.849076 21.9897 0.782858 20.503L-0.615755 20.5653C-0.544029 22.1757 -0.300811 23.3035 0.0680356 24.3062L1.38195 23.8229ZM0.782993 20.5062L0.741609 19.4709L-0.657273 19.5268L-0.61589 20.5621L0.782993 20.5062ZM0.741959 19.4817L0.735062 19.1996L-0.66452 19.2338L-0.657623 19.5159L0.741959 19.4817ZM0.73507 19.2C0.709788 18.1458 0.698358 17.0914 0.700783 16.0369L-0.699214 16.0337C-0.701667 17.1004 -0.690104 18.1671 -0.664528 19.2335L0.73507 19.2ZM0.700785 16.0353V13.0457H-0.699215V16.0353H0.700785ZM0.70078 13.0432C0.696984 11.9888 0.707043 10.9343 0.730953 9.88016L-0.668687 9.84841C-0.692876 10.9148 -0.703051 11.9815 -0.699211 13.0483L0.70078 13.0432ZM0.730723 9.88823L0.740379 9.60614L-0.658802 9.55825L-0.668458 9.84033L0.730723 9.88823ZM0.740391 9.60579C0.7513 9.28239 0.764947 8.96435 0.781532 8.57684L-0.617188 8.51698C-0.63371 8.90303 -0.647651 9.22768 -0.658813 9.5586L0.740391 9.60579ZM0.781479 8.57806C0.847688 7.09153 1.06792 6.1094 1.3807 5.25781L0.0665333 4.77514C-0.302139 5.77892 -0.545399 6.90517 -0.617135 8.51577L0.781479 8.57806ZM1.38275 5.25216C1.69706 4.37313 2.18874 3.57992 2.82113 2.92685L1.81539 1.95295C1.04136 2.75229 0.444574 3.71779 0.0644838 4.7808L1.38275 5.25216ZM2.8305 2.91698C3.44983 2.252 4.19683 1.73996 5.01811 1.41401L4.50165 0.112748C3.48327 0.516937 2.5638 1.14917 1.80601 1.96282L2.8305 2.91698ZM5.02437 1.41149C5.82282 1.08565 6.74399 0.85566 8.14378 0.786387L8.07458 -0.611901C6.53615 -0.535769 5.45712 -0.277197 4.4954 0.115266L5.02437 1.41149ZM8.14243 0.786453C8.51004 0.768972 8.81275 0.754605 9.11768 0.743126L9.06502 -0.655883C8.75195 -0.644098 8.44219 -0.629384 8.07593 -0.611967L8.14243 0.786453ZM9.11416 0.74325L9.38177 0.734525L9.33615 -0.664731L9.06854 -0.656007L9.11416 0.74325ZM9.37694 0.734666C10.376 0.709007 11.3754 0.697933 12.3747 0.70145L12.3797 -0.698542C11.3667 -0.702106 10.3537 -0.690881 9.34099 -0.664872L9.37694 0.734666ZM12.3776 0.701454L15.2137 0.7L15.213 -0.7L12.3768 -0.698546L12.3776 0.701454ZM13.7953 6.57025C11.7681 6.57025 9.83192 7.41944 8.41035 8.91789L9.42601 9.88144C10.5914 8.65302 12.1639 7.97025 13.7953 7.97025V6.57025ZM8.41035 8.91789C6.98997 10.4151 6.19803 12.4382 6.19803 14.5405H7.59803C7.59803 12.7864 8.25943 11.1111 9.42601 9.88144L8.41035 8.91789ZM6.19803 14.5405C6.19803 16.6428 6.98997 18.6659 8.41035 20.1631L9.42601 19.1996C8.25943 17.9699 7.59803 16.2946 7.59803 14.5405H6.19803ZM8.41035 20.1631C9.83192 21.6616 11.7681 22.5108 13.7953 22.5108V21.1108C12.1639 21.1108 10.5914 20.428 9.42601 19.1996L8.41035 20.1631ZM13.7953 22.5108C15.8224 22.5108 17.7586 21.6616 19.1802 20.1631L18.1645 19.1996C16.9991 20.428 15.4266 21.1108 13.7953 21.1108V22.5108ZM19.1802 20.1631C20.6006 18.6659 21.3925 16.6428 21.3925 14.5405H19.9925C19.9925 16.2946 19.3311 17.9699 18.1645 19.1996L19.1802 20.1631ZM21.3925 14.5405C21.3925 12.4382 20.6006 10.4151 19.1802 8.91789L18.1645 9.88144C19.3311 11.1111 19.9925 12.7864 19.9925 14.5405H21.3925ZM19.1802 8.91789C17.7586 7.41944 15.8224 6.57025 13.7953 6.57025V7.97025C15.4266 7.97025 16.9991 8.65302 18.1645 9.88144L19.1802 8.91789ZM13.7954 10.8784C14.2416 10.8783 14.6845 10.9708 15.099 11.1517L15.659 9.86856C15.0692 9.6112 14.4358 9.47824 13.7951 9.47836L13.7954 10.8784ZM15.099 11.1517C15.5136 11.3326 15.8928 11.599 16.214 11.9373L17.2295 10.9736C16.7819 10.502 16.2486 10.1259 15.659 9.86856L15.099 11.1517ZM16.214 11.9373C16.5352 12.2758 16.7918 12.6796 16.9676 13.1266L18.2705 12.6144C18.0301 12.003 17.677 11.4452 17.2295 10.9736L16.214 11.9373ZM16.9676 13.1266C17.1433 13.5737 17.2342 14.054 17.2343 14.5399L18.6343 14.5397C18.6342 13.8799 18.5108 13.2258 18.2705 12.6144L16.9676 13.1266ZM17.2343 14.5399C17.2344 15.0258 17.1436 15.5061 16.968 15.9533L18.2711 16.4651C18.5113 15.8536 18.6344 15.1995 18.6343 14.5397L17.2343 14.5399ZM16.968 15.9533C16.7924 16.4003 16.5359 16.8042 16.2148 17.1428L17.2306 18.1062C17.6779 17.6345 18.0309 17.0766 18.2711 16.4651L16.968 15.9533ZM16.2148 17.1428C15.8938 17.4813 15.5146 17.7478 15.1001 17.9289L15.6605 19.2118C16.25 18.9543 16.7832 18.5779 17.2306 18.1062L16.2148 17.1428ZM15.1001 17.9289C14.6856 18.1099 14.2428 18.2026 13.7965 18.2027L13.7968 19.6027C14.4374 19.6026 15.0708 19.4694 15.6605 19.2118L15.1001 17.9289ZM13.7966 18.2027C12.897 18.2027 12.0262 17.8263 11.3782 17.1432L10.3626 18.1068C11.2667 19.0599 12.5012 19.6027 13.7966 19.6027V18.2027ZM11.3782 17.1432C10.729 16.4589 10.3583 15.5233 10.3583 14.5405H8.9583C8.9583 15.8715 9.45957 17.155 10.3626 18.1068L11.3782 17.1432ZM10.3583 14.5405C10.3583 13.5577 10.729 12.6221 11.3782 11.9378L10.3626 10.9742C9.45957 11.9261 8.9583 13.2095 8.9583 14.5405H10.3583ZM11.3782 11.9378C12.0262 11.2547 12.897 10.8784 13.7966 10.8784V9.47836C12.5012 9.47836 11.2667 10.0211 10.3626 10.9742L11.3782 11.9378ZM21.0387 4.38918C20.3835 4.38918 19.7631 4.66388 19.3116 5.13976L20.3273 6.10331C20.5226 5.89746 20.7793 5.78918 21.0387 5.78918V4.38918ZM19.3116 5.13976C18.8614 5.61438 18.6144 6.25059 18.6144 6.90674H20.0144C20.0144 6.5988 20.1308 6.3104 20.3273 6.10331L19.3116 5.13976ZM18.6144 6.90674C18.6144 7.5629 18.8614 8.19911 19.3116 8.67373L20.3273 7.71018C20.1308 7.50308 20.0144 7.21468 20.0144 6.90674H18.6144ZM19.3116 8.67373C19.7631 9.1496 20.3835 9.42431 21.0387 9.42431V8.02431C20.7793 8.02431 20.5226 7.91602 20.3273 7.71018L19.3116 8.67373ZM21.0387 9.42431C21.694 9.42431 22.3144 9.1496 22.7659 8.67373L21.7502 7.71018C21.5549 7.91602 21.2982 8.02431 21.0387 8.02431V9.42431ZM22.7659 8.67373C23.2161 8.19911 23.4631 7.56289 23.4631 6.90674H22.0631C22.0631 7.21469 21.9467 7.50308 21.7502 7.71018L22.7659 8.67373ZM23.4631 6.90674C23.4631 6.25059 23.2161 5.61438 22.7659 5.13976L21.7502 6.10331C21.9467 6.3104 22.0631 6.5988 22.0631 6.90674H23.4631ZM22.7659 5.13976C22.3144 4.66388 21.694 4.38918 21.0387 4.38918V5.78918C21.2982 5.78918 21.5549 5.89746 21.7502 6.10331L22.7659 5.13976Z" fill="#C985FF" mask="url(#path-1-inside-1_544_139)"/>
</svg>
