<svg width="30" height="30" viewBox="0 0 30 30" fill="none" xmlns="http://www.w3.org/2000/svg">
<g clip-path="url(#clip0_544_152)">
<path d="M15.8424 31.7235L15.5892 31.8508L15.5837 31.8518L15.5665 31.8549L15.5131 31.8646C15.4942 31.8594 15.4726 31.8544 15.4487 31.8507L15.2004 31.7265C15.0895 31.6683 14.9612 31.651 14.8383 31.6784C14.7046 31.708 14.5876 31.7882 14.5116 31.902L14.4861 31.9403L14.4679 31.9826L14.4586 32.0045L14.4238 32.0857L14.4189 32.1738L14.3729 33.0036H-3.5112V-3.5112H33.0036V33.0036H16.6638L16.6178 32.1738L16.615 32.1233L16.6021 32.0742C16.5648 31.9322 16.4443 31.7286 16.1855 31.6768L16.0987 31.6595L16.0113 31.6729L15.991 31.676L15.913 31.688L15.8424 31.7235Z" stroke="#C985FF" stroke-opacity="0.71"/>
<path d="M18.6343 14.0659L18.6205 14.0615C18.2157 13.9336 17.5576 13.9987 17.1199 14.1853C16.372 14.5052 15.6883 15.0181 15.2462 15.4738V20.9986C15.2462 21.5458 15.0288 22.0706 14.6419 22.4575C14.255 22.8444 13.7302 23.0618 13.1831 23.0618C12.6359 23.0618 12.1111 22.8444 11.7242 22.4575C11.3373 22.0706 11.12 21.5458 11.12 20.9986V11.62C11.12 11.0728 11.3373 10.548 11.7242 10.1611C12.1111 9.77422 12.6358 9.55686 13.183 9.55684L18.6343 14.0659ZM18.6343 14.0659L18.6483 14.0694C18.7201 14.0877 18.7845 14.1276 18.8327 14.1837C18.854 14.2161 18.9355 14.3635 18.9355 14.7462V20.9986C18.9355 21.5458 19.1529 22.0706 19.5398 22.4575C19.9267 22.8444 20.4515 23.0618 20.9986 23.0618C21.5458 23.0618 22.0706 22.8444 22.4575 22.4575C22.8444 22.0706 23.0618 21.5458 23.0618 20.9986V14.7462C23.0618 13.6141 22.7737 12.5722 22.1445 11.7225L22.1424 11.7197C21.5697 10.9577 20.7685 10.3987 19.8557 10.1243C18.3081 9.63985 16.6234 9.91035 15.498 10.3929L15.4974 10.3931C15.3268 10.4665 15.1583 10.5447 14.9921 10.6276M18.6343 14.0659L14.9921 10.6276M14.9921 10.6276C14.869 10.4033 14.7044 10.2022 14.505 10.0358C14.1341 9.72629 13.6662 9.55678 13.1831 9.55684L14.9921 10.6276ZM24.1249 1.17815C25.236 1.17815 26.3015 1.61952 27.0872 2.40518C27.8728 3.19083 28.3142 4.25641 28.3142 5.36749V24.1249C28.3142 25.236 27.8728 26.3015 27.0872 27.0872C26.3015 27.8728 25.236 28.3142 24.1249 28.3142H5.36749C4.25641 28.3142 3.19083 27.8728 2.40518 27.0872C1.61952 26.3015 1.17815 25.236 1.17815 24.1249V5.36749C1.17815 4.25641 1.61952 3.19083 2.40518 2.40518C3.19083 1.61952 4.25641 1.17815 5.36749 1.17815H24.1249ZM8.49372 11.12C7.94655 11.12 7.42179 11.3373 7.03488 11.7242C6.64797 12.1111 6.43061 12.6359 6.43061 13.1831V20.9986C6.43061 21.5458 6.64797 22.0706 7.03488 22.4575C7.42179 22.8444 7.94655 23.0618 8.49372 23.0618C9.04089 23.0618 9.56565 22.8444 9.95256 22.4575C10.3395 22.0706 10.5568 21.5458 10.5568 20.9986V13.1831C10.5568 12.6359 10.3395 12.1111 9.95257 11.7242C9.56566 11.3373 9.04089 11.12 8.49372 11.12ZM8.49372 6.43061C7.94655 6.43061 7.42179 6.64797 7.03488 7.03488C6.64797 7.42179 6.43061 7.94655 6.43061 8.49372C6.43061 9.04089 6.64797 9.56566 7.03488 9.95256C7.42179 10.3395 7.94655 10.5568 8.49372 10.5568C9.04089 10.5568 9.56566 10.3395 9.95256 9.95257C10.3395 9.56566 10.5568 9.04089 10.5568 8.49372C10.5568 7.94655 10.3395 7.42179 9.95257 7.03488C9.56566 6.64797 9.04089 6.43061 8.49372 6.43061Z" stroke="#C985FF" stroke-opacity="0.71"/>
</g>
<defs>
<clipPath id="clip0_544_152">
<rect width="29.0812" height="29.0812" fill="white"/>
</clipPath>
</defs>
</svg>
