<svg width="33" height="30" viewBox="0 0 33 30" fill="none" xmlns="http://www.w3.org/2000/svg">
<path d="M8.51252 17.3943L8.51248 17.3941C8.46848 17.2214 8.47886 17.0388 8.54244 16.8722C8.60594 16.7058 8.71988 16.5625 8.86983 16.4645L8.51252 17.3943ZM8.51252 17.3943L10.8799 26.6678L11.5582 26.6673L13.3454 19.6276L13.3458 19.626C13.3524 19.5997 13.3651 19.5766 13.3816 19.5586C13.5228 19.4179 13.816 19.1258 14.2221 18.7211C17.0732 15.8799 25.4883 7.49439 25.9082 7.08857C26.1703 6.83695 26.3177 6.63157 26.3639 6.44337C26.3874 6.34714 26.3863 6.24715 26.3515 6.15404C26.3448 6.07182 26.324 5.98705 26.2795 5.90727C26.2095 5.78163 26.1006 5.70379 25.9855 5.66561C25.7881 5.60016 25.579 5.65238 25.4544 5.69218C25.3108 5.73807 25.1735 5.80401 25.0773 5.85463C25.028 5.88059 24.9866 5.90401 24.9573 5.92116C24.9426 5.92976 24.9307 5.93686 24.9223 5.942L24.9121 5.94821L24.909 5.95013L24.908 5.95077L24.9076 5.95101L24.9074 5.95111C24.9074 5.95115 24.9073 5.9512 25.0933 6.24766L24.9073 5.95114L24.9015 5.95495L8.87064 16.464L8.51252 17.3943ZM26.8649 27.0402L26.8523 27.0711L26.8513 27.0733L26.8513 27.0733L26.8492 27.078C26.6904 27.4406 26.4523 27.759 26.1546 28.0083C25.9005 28.2171 25.5681 28.3972 25.1514 28.4566C24.7338 28.5144 24.2623 28.448 23.7361 28.2106L23.7338 28.2096L23.684 28.1875L17.3699 23.1906L17.1131 22.9874L16.8933 23.23L13.1961 27.3104L13.1544 27.3564L13.1311 27.4139C12.9624 27.8301 12.6724 28.1793 12.304 28.4139C11.9357 28.6484 11.5067 28.7573 11.0771 28.7267C10.6475 28.696 10.2365 28.5271 9.90221 28.2418C9.5678 27.9564 9.32679 27.5686 9.21501 27.1319C9.21499 27.1318 9.21498 27.1317 9.21496 27.1317L6.84782 17.859C6.84779 17.8589 6.84776 17.8587 6.84773 17.8586C6.77753 17.5815 6.75074 17.3086 6.76589 17.0388L6.78069 16.7752L6.53133 16.6885L1.81672 15.0501L1.79991 15.0427L1.78503 15.038L1.75312 15.0236L1.75318 15.0235L1.74401 15.0197C1.53954 14.9342 1.34505 14.8247 1.1644 14.6931C0.851116 14.4638 0.434971 14.0559 0.359998 13.434L0.359976 13.4338C0.27364 12.7208 0.780352 12.249 1.11068 12.014C1.26845 11.9042 1.43483 11.8086 1.60802 11.728L1.61543 11.7246L1.62267 11.7208C1.68316 11.6891 1.74593 11.6626 1.81036 11.6415L1.82272 11.6374L1.83473 11.6324L1.84062 11.63L1.84281 11.6291L28.8567 0.689262L28.8589 0.688372L28.8777 0.680922L28.8778 0.681045L28.8866 0.677244C29.0045 0.626656 29.1243 0.581287 29.2459 0.54126L29.2473 0.540787C29.5286 0.446807 29.819 0.385316 30.1132 0.357378C30.4287 0.333369 30.8243 0.358213 31.1546 0.580803L31.1547 0.580875C31.5214 0.82778 31.7145 1.25104 31.7145 1.79694V1.84369L26.8811 27.0003L26.8649 27.0402Z" stroke="#C985FF" stroke-width="0.7"/>
</svg>
