<svg width="30" height="30" viewBox="0 0 30 30" fill="none" xmlns="http://www.w3.org/2000/svg">
<path d="M23.704 5.68333L24.2121 5.10282H23.4406H20.3572H20.1982L20.0936 5.22253L15.3004 10.7084L11.1653 5.24168L11.0603 5.10282H10.8862H4.52455H3.8162L4.24654 5.66546L11.674 15.3764L4.65708 23.3985L4.14938 23.9789H4.92052H8.00397H8.16274L8.26732 23.8594L13.5487 17.8262L18.1446 23.8414L18.2497 23.9789H18.4228H24.6286H25.3322L24.9077 23.4177L17.1536 13.1678L23.704 5.68333ZM0.35 4.15453C0.35 2.05635 2.05635 0.35 4.15453 0.35H24.9272C27.0254 0.35 28.7317 2.05635 28.7317 4.15453V24.9272C28.7317 27.0254 27.0254 28.7317 24.9272 28.7317H4.15453C2.05635 28.7317 0.35 27.0254 0.35 24.9272V4.15453ZM8.82899 7.54903H9.78375L20.2834 21.4353H19.4461L8.82899 7.54903Z" stroke="#C985FF" stroke-width="0.7"/>
</svg>
