<svg width="24" height="24" viewBox="0 0 24 24" fill="none" xmlns="http://www.w3.org/2000/svg">
<path d="M12 1C18.0764 1 23 5.9258 23 12C23 18.0742 18.0764 23 12 23M8.7 22.45C7.39769 22.016 6.17872 21.3636 5.0953 20.5206M5.0953 3.4794C6.18213 2.64171 7.40017 1.98976 8.7 1.55M1 10.0706C1.24506 8.78068 1.72852 7.54777 2.4256 6.4351M1 13.9294C1.24506 15.2193 1.72852 16.4522 2.4256 17.5649" stroke="#8A8A8A" stroke-width="1.5" stroke-linecap="round" stroke-linejoin="round"/>
<path d="M7.59998 16.4C9.88028 13.9822 14.0955 13.8689 16.4 16.4H7.59998ZM14.4398 8.975C14.4398 10.3423 13.3442 11.45 11.9912 11.45C10.6382 11.45 9.54368 10.3423 9.54368 8.975C9.54368 7.6077 10.6393 6.5 11.9923 6.5C13.3453 6.5 14.4398 7.6077 14.4398 8.975Z" fill="#8A8A8A"/>
<path d="M7.59998 16.4C9.88028 13.9822 14.0955 13.8689 16.4 16.4M14.4398 8.975C14.4398 10.3423 13.3442 11.45 11.9912 11.45C10.6382 11.45 9.54368 10.3423 9.54368 8.975C9.54368 7.6077 10.6393 6.5 11.9923 6.5C13.3453 6.5 14.4398 7.6077 14.4398 8.975Z" stroke="#8A8A8A" stroke-width="1.5" stroke-linecap="round" stroke-linejoin="round"/>
</svg>
