<svg width="22" height="22" viewBox="0 0 22 22" fill="none" xmlns="http://www.w3.org/2000/svg">
<path d="M3.3 22C2.98833 22 2.72727 21.904 2.5168 21.712C2.30633 21.52 2.20073 21.2827 2.2 21C2.19927 20.7173 2.30487 20.48 2.5168 20.288C2.72873 20.096 2.9898 20 3.3 20H18.7C19.0117 20 19.2731 20.096 19.4843 20.288C19.6955 20.48 19.8007 20.7173 19.8 21C19.7993 21.2827 19.6937 21.5203 19.4832 21.713C19.2727 21.9057 19.0117 22.0013 18.7 22H3.3ZM3.3 2C2.98833 2 2.72727 1.904 2.5168 1.712C2.30633 1.52 2.20073 1.28267 2.2 1C2.19927 0.717333 2.30487 0.48 2.5168 0.288C2.72873 0.096 2.9898 0 3.3 0H18.7C19.0117 0 19.2731 0.096 19.4843 0.288C19.6955 0.48 19.8007 0.717333 19.8 1C19.7993 1.28267 19.6937 1.52033 19.4832 1.713C19.2727 1.90567 19.0117 2.00133 18.7 2H3.3ZM11 12C11.9167 12 12.6958 11.7083 13.3375 11.125C13.9792 10.5417 14.3 9.83333 14.3 9C14.3 8.16667 13.9792 7.45833 13.3375 6.875C12.6958 6.29167 11.9167 6 11 6C10.0833 6 9.30417 6.29167 8.6625 6.875C8.02083 7.45833 7.7 8.16667 7.7 9C7.7 9.83333 8.02083 10.5417 8.6625 11.125C9.30417 11.7083 10.0833 12 11 12ZM2.2 19C1.595 19 1.07727 18.8043 0.6468 18.413C0.216333 18.0217 0.000733333 17.5507 0 17V5C0 4.45 0.2156 3.97933 0.6468 3.588C1.078 3.19667 1.59573 3.00067 2.2 3H19.8C20.405 3 20.9231 3.196 21.3543 3.588C21.7855 3.98 22.0007 4.45067 22 5V17C22 17.55 21.7848 18.021 21.3543 18.413C20.9238 18.805 20.4057 19.0007 19.8 19H2.2ZM4.125 17C4.95 16.0667 5.94917 15.3333 7.1225 14.8C8.29583 14.2667 9.58833 14 11 14C12.4117 14 13.7042 14.2667 14.8775 14.8C16.0508 15.3333 17.05 16.0667 17.875 17H19.8V5H2.2V17H4.125ZM7.37 17H14.63C14.0983 16.6667 13.5256 16.4167 12.9118 16.25C12.298 16.0833 11.6607 16 11 16C10.3393 16 9.70236 16.0833 9.0893 16.25C8.47623 16.4167 7.90313 16.6667 7.37 17ZM11 10C10.6883 10 10.4273 9.904 10.2168 9.712C10.0063 9.52 9.90073 9.28267 9.9 9C9.89927 8.71733 10.0049 8.48 10.2168 8.288C10.4287 8.096 10.6898 8 11 8C11.3102 8 11.5716 8.096 11.7843 8.288C11.997 8.48 12.1022 8.71733 12.1 9C12.0978 9.28267 11.9922 9.52033 11.7832 9.713C11.5742 9.90567 11.3131 10.0013 11 10Z" fill="#8A8A8A"/>
</svg>
