<svg width="24" height="22" viewBox="0 0 24 22" fill="none" xmlns="http://www.w3.org/2000/svg">
<path fill-rule="evenodd" clip-rule="evenodd" d="M9.79471 0.235397C9.94704 0.386317 10.0326 0.590895 10.0326 0.804196C10.0326 1.0175 9.94704 1.22207 9.79471 1.37299C9.51274 1.65203 9.51274 2.10277 9.79471 2.38181C10.2347 2.81733 10.4819 3.40796 10.4819 4.02381C10.4819 4.63966 10.2347 5.23029 9.79471 5.66582C9.64052 5.80799 9.43658 5.8854 9.22586 5.88172C9.01513 5.87804 8.81408 5.79356 8.66505 5.64609C8.51602 5.49862 8.43066 5.29966 8.42694 5.09114C8.42322 4.88261 8.50144 4.6808 8.64512 4.52822C8.77996 4.39426 8.85566 4.21289 8.85566 4.02381C8.85566 3.83474 8.77996 3.65337 8.64512 3.51941C8.20511 3.08388 7.95792 2.49325 7.95792 1.8774C7.95792 1.26155 8.20511 0.670919 8.64512 0.235397C8.79763 0.0846648 9.00437 0 9.21992 0C9.43547 0 9.6422 0.0846648 9.79471 0.235397ZM4.91435 1.8452C5.06667 1.99612 5.15223 2.2007 5.15223 2.414C5.15223 2.6273 5.06667 2.83188 4.91435 2.9828L4.78855 3.10729C4.66079 3.23359 4.58342 3.4013 4.57067 3.57955C4.55792 3.7578 4.61064 3.93462 4.71914 4.07747C5.0623 4.53035 5.22885 5.09054 5.18821 5.65516C5.14757 6.21979 4.90246 6.75095 4.49789 7.15113L4.37209 7.27562C4.2179 7.4178 4.01395 7.4952 3.80323 7.49153C3.5925 7.48785 3.39145 7.40337 3.24242 7.2559C3.09339 7.10843 3.00803 6.90947 3.00431 6.70095C3.00059 6.49242 3.07881 6.29061 3.22249 6.13803L3.34829 6.01353C3.47605 5.88723 3.55342 5.71953 3.56617 5.54128C3.57892 5.36302 3.5262 5.18621 3.4177 5.04336C3.0744 4.5906 2.90766 4.03049 2.94811 3.46587C2.98855 2.90125 3.23346 2.37001 3.63786 1.9697L3.76367 1.8452C3.83921 1.77041 3.9289 1.71107 4.02762 1.67059C4.12634 1.63011 4.23215 1.60927 4.33901 1.60927C4.44587 1.60927 4.55168 1.63011 4.6504 1.67059C4.74912 1.71107 4.83881 1.77041 4.91435 1.8452ZM15.2173 1.8452C15.3697 1.99612 15.4552 2.2007 15.4552 2.414C15.4552 2.6273 15.3697 2.83188 15.2173 2.9828L15.0915 3.10729C14.9638 3.23359 14.8864 3.4013 14.8737 3.57955C14.8609 3.7578 14.9136 3.93462 15.0221 4.07747C15.3653 4.53035 15.5318 5.09054 15.4912 5.65516C15.4506 6.21979 15.2055 6.75095 14.8009 7.15113L14.6751 7.27562C14.6006 7.3547 14.5108 7.41813 14.411 7.46213C14.3113 7.50612 14.2036 7.52977 14.0943 7.53168C13.9851 7.53359 13.8766 7.51371 13.7754 7.47322C13.6741 7.43274 13.5821 7.37249 13.5048 7.29605C13.4276 7.21962 13.3667 7.12858 13.3258 7.02835C13.2849 6.92813 13.2648 6.82078 13.2667 6.7127C13.2687 6.60463 13.2926 6.49804 13.337 6.39931C13.3815 6.30058 13.4456 6.21171 13.5255 6.13803L13.6513 6.01353C13.779 5.88723 13.8564 5.71953 13.8692 5.54128C13.8819 5.36302 13.8292 5.18621 13.7207 5.04336C13.3774 4.5906 13.2107 4.03049 13.2511 3.46587C13.2915 2.90125 13.5364 2.37001 13.9409 1.9697L14.0677 1.8452C14.2203 1.69447 14.427 1.60981 14.6425 1.60981C14.8581 1.60981 15.0648 1.69447 15.2173 1.8452ZM3.41445 8.58493H15.0243C15.418 8.58493 15.7195 8.58493 15.9808 8.63001C16.6784 8.75246 17.3091 9.11699 17.7595 9.65814H18.9806C20.0593 9.65814 21.0937 10.0821 21.8564 10.8369C22.6191 11.5916 23.0476 12.6153 23.0476 13.6827C23.0476 14.75 22.6191 15.7737 21.8564 16.5284C21.0937 17.2832 20.0593 17.7072 18.9806 17.7072H17.5144C17.019 18.9713 16.149 20.0578 15.0185 20.8239C13.888 21.59 12.5498 21.9999 11.1797 22H7.26018C5.59497 21.9999 3.9878 21.3946 2.74384 20.2991C1.49988 19.2037 0.705758 17.6943 0.51226 16.0577L0.0784496 12.3787L0.0686889 12.3057C0.0231389 11.9194 -0.011566 11.6221 0.00361734 11.3613C0.0432388 10.6993 0.307052 10.0697 0.752512 9.57418C1.19797 9.07866 1.79911 8.74606 2.45898 8.63001C2.71927 8.58493 3.02185 8.58493 3.41445 8.58493ZM16.2346 16.3345C16.1384 16.4299 16.068 16.5478 16.0299 16.6772C15.9918 16.8066 15.9872 16.9434 16.0166 17.0751C15.647 18.049 14.9859 18.8882 14.1216 19.4805C13.2573 20.0729 12.231 20.3902 11.1797 20.3902H7.26018C5.99377 20.39 4.77152 19.9297 3.82547 19.0966C2.87942 18.2635 2.27544 17.1156 2.1282 15.8709L1.69439 12.192C1.63474 11.6983 1.62173 11.5566 1.62715 11.4558C1.6454 11.1548 1.76555 10.8688 1.96821 10.6437C2.17087 10.4186 2.44423 10.2676 2.74421 10.2151C2.84291 10.198 2.98606 10.1947 3.48928 10.1947H14.9506C15.4527 10.1947 15.5958 10.198 15.6956 10.2162C16.3138 10.3235 16.7747 10.8376 16.8127 11.4568C16.8181 11.5566 16.804 11.6972 16.7465 12.192L16.3116 15.8709C16.2932 16.0265 16.2672 16.1822 16.2346 16.3345ZM17.9232 16.0974H18.9806C19.6278 16.0974 20.2485 15.843 20.7061 15.3901C21.1637 14.9373 21.4208 14.3231 21.4208 13.6827C21.4208 13.0422 21.1637 12.428 20.7061 11.9752C20.2485 11.5224 19.6278 11.2679 18.9806 11.2679H18.4286C18.4319 11.2991 18.434 11.3291 18.4351 11.3602C18.4514 11.6221 18.4167 11.9183 18.3701 12.3047L18.3614 12.3787L17.9276 16.0577L17.9232 16.0974Z" fill="#8A8A8A"/>
</svg>
