<svg width="22" height="22" viewBox="0 0 22 22" fill="none" xmlns="http://www.w3.org/2000/svg">
<path d="M16.8438 0.00790024C14.2794 0.00790024 11.6875 1.05063 11.6875 3.03339V4.28941C12.1479 4.31416 12.6069 4.3669 13.0625 4.4474V3.03339C13.0625 2.51993 14.4994 1.57989 16.8438 1.57989C19.1881 1.57989 20.625 2.52783 20.625 3.03339V11.1935C20.625 11.6201 19.6213 12.3311 17.9438 12.5601V14.14C20.0956 13.8873 22 12.8761 22 11.1777V3.03339C22 1.05063 19.4081 0.00790024 16.8438 0.00790024Z" fill="#8A8A8A"/>
<path d="M1.375 11.1935V3.03339C1.375 2.51993 2.81187 1.57989 5.15625 1.57989C7.50063 1.57989 8.9375 2.52783 8.9375 3.03339V4.4474C9.39309 4.3669 9.85206 4.31416 10.3125 4.28941V3.03339C10.3125 1.04273 7.72062 0 5.15625 0C2.59188 0 0 1.05063 0 3.03339V11.1935C0 12.8998 1.90437 13.9031 4.05625 14.1637V12.5838C2.37875 12.3311 1.375 11.6201 1.375 11.1935Z" fill="#8A8A8A"/>
<path d="M11 5.35583C7.6106 5.35583 5.0531 6.84093 5.0531 8.8158V18.54C5.0531 20.5149 7.6106 22 11 22C14.3893 22 16.9468 20.5149 16.9468 18.54V8.8158C16.9468 6.84093 14.3893 5.35583 11 5.35583ZM15.5718 11.4147C14.9875 12.2047 13.2206 12.9946 11 12.9946C10.0711 13.0056 9.14551 12.8673 8.24998 12.5838V13.7372C9.14976 13.9911 10.0735 14.1158 11 14.1084C12.5931 14.1827 14.1737 13.7566 15.5718 12.8761V15.3408C14.9875 16.1307 13.2206 16.9206 11 16.9206C10.0708 16.929 9.14518 16.7881 8.24998 16.502V17.6553C9.14976 17.9092 10.0735 18.0339 11 18.0266C12.5931 18.1008 14.1737 17.6748 15.5718 16.7943V18.6032C15.5718 19.3537 13.75 20.4833 11 20.4833C8.24998 20.4833 6.4281 19.3537 6.4281 18.6032V8.8158C6.4281 8.06535 8.24998 6.93573 11 6.93573C13.75 6.93573 15.5718 8.06535 15.5718 8.8158V11.4147Z" fill="#8A8A8A"/>
</svg>
